<?xml version="1.0" encoding="UTF-8"?>
<svg version="1.1" xmlns="http://www.w3.org/2000/svg" width="35" height="35">
<path d="M0 0 C2.33294775 -0.04241723 4.66702567 -0.04092937 7 0 C8 1 8 1 8.25 3.75 C7.97119304 7.37449044 7.24897561 9.16795664 5 12 C4.01 12 3.02 12 2 12 C2.62759865 9.07120629 3.58622659 6.63904371 5 4 C2.3333581 2.66667905 0.83319697 3.32897967 -2 4 C-1.34 2.68 -0.68 1.36 0 0 Z " fill="#E2E2E2" transform="translate(14,9)"/>
<path d="M0 0 C0.99 0 1.98 0 3 0 C3 1.98 3 3.96 3 6 C4.98 6 6.96 6 9 6 C9 6.99 9 7.98 9 9 C2.84765625 9.09765625 2.84765625 9.09765625 1 9 C0 8 0 8 -0.09765625 6.15234375 C-0.06510417 4.1015625 -0.03255208 2.05078125 0 0 Z " fill="#E2E2E2" transform="translate(4,22)"/>
<path d="M0 0 C6.15234375 -0.09765625 6.15234375 -0.09765625 8 0 C9 1 9 1 9.09765625 2.84765625 C9.04882812 5.92382812 9.04882812 5.92382812 9 9 C8.01 9 7.02 9 6 9 C6 7.02 6 5.04 6 3 C4.02 3 2.04 3 0 3 C0 2.01 0 1.02 0 0 Z " fill="#E2E2E2" transform="translate(22,4)"/>
<path d="M0 0 C2.05078125 0.03255208 4.1015625 0.06510417 6.15234375 0.09765625 C6.15234375 1.08765625 6.15234375 2.07765625 6.15234375 3.09765625 C4.17234375 3.09765625 2.19234375 3.09765625 0.15234375 3.09765625 C0.15234375 5.07765625 0.15234375 7.05765625 0.15234375 9.09765625 C-0.83765625 9.09765625 -1.82765625 9.09765625 -2.84765625 9.09765625 C-2.9453125 2.9453125 -2.9453125 2.9453125 -2.84765625 1.09765625 C-1.84765625 0.09765625 -1.84765625 0.09765625 0 0 Z " fill="#E2E2E2" transform="translate(6.84765625,3.90234375)"/>
<path d="M0 0 C0.99 0 1.98 0 3 0 C3 2.64 3 5.28 3 8 C0.04335481 9.4783226 -2.74229737 9.06032783 -6 9 C-6 8.01 -6 7.02 -6 6 C-4.02 6 -2.04 6 0 6 C0 4.02 0 2.04 0 0 Z " fill="#E2E2E2" transform="translate(28,22)"/>
<path d="M0 0 C0.99 0 1.98 0 3 0 C3 0.99 3 1.98 3 3 C2.01 3 1.02 3 0 3 C0 2.01 0 1.02 0 0 Z " fill="#E3E3E3" transform="translate(16,23)"/>
</svg>
